<mxfile host="app.diagrams.net" agent="Mozilla/5.0 (Windows NT 10.0; Win64; x64; rv:143.0) Gecko/20100101 Firefox/143.0" version="28.2.5">
  <diagram name="Pagina-1" id="8t2d8Z0jHbkgKG-cQeLH">
    <mxGraphModel dx="971" dy="591" grid="1" gridSize="10" guides="1" tooltips="1" connect="1" arrows="1" fold="1" page="1" pageScale="1" pageWidth="827" pageHeight="1169" math="0" shadow="0">
      <root>
        <mxCell id="0" />
        <mxCell id="1" parent="0" />
        <mxCell id="3JHUdMabVC3wb-WBygPt-1" value="Studente" style="swimlane;fontStyle=0;childLayout=stackLayout;horizontal=1;startSize=30;horizontalStack=0;resizeParent=1;resizeParentMax=0;resizeLast=0;collapsible=1;marginBottom=0;whiteSpace=wrap;html=1;" parent="1" vertex="1">
          <mxGeometry x="257.5" y="1400" width="175" height="180" as="geometry" />
        </mxCell>
        <mxCell id="3JHUdMabVC3wb-WBygPt-2" value="+Matricola: String [1]" style="text;strokeColor=none;fillColor=none;align=left;verticalAlign=middle;spacingLeft=4;spacingRight=4;overflow=hidden;points=[[0,0.5],[1,0.5]];portConstraint=eastwest;rotatable=0;whiteSpace=wrap;html=1;" parent="3JHUdMabVC3wb-WBygPt-1" vertex="1">
          <mxGeometry y="30" width="175" height="30" as="geometry" />
        </mxCell>
        <mxCell id="3JHUdMabVC3wb-WBygPt-3" value="+Email: String [1]" style="text;strokeColor=none;fillColor=none;align=left;verticalAlign=middle;spacingLeft=4;spacingRight=4;overflow=hidden;points=[[0,0.5],[1,0.5]];portConstraint=eastwest;rotatable=0;whiteSpace=wrap;html=1;" parent="3JHUdMabVC3wb-WBygPt-1" vertex="1">
          <mxGeometry y="60" width="175" height="30" as="geometry" />
        </mxCell>
        <mxCell id="3JHUdMabVC3wb-WBygPt-4" value="+Nome: String [1]" style="text;strokeColor=none;fillColor=none;align=left;verticalAlign=middle;spacingLeft=4;spacingRight=4;overflow=hidden;points=[[0,0.5],[1,0.5]];portConstraint=eastwest;rotatable=0;whiteSpace=wrap;html=1;" parent="3JHUdMabVC3wb-WBygPt-1" vertex="1">
          <mxGeometry y="90" width="175" height="30" as="geometry" />
        </mxCell>
        <mxCell id="3JHUdMabVC3wb-WBygPt-5" value="+Cognome: String [1]" style="text;strokeColor=none;fillColor=none;align=left;verticalAlign=middle;spacingLeft=4;spacingRight=4;overflow=hidden;points=[[0,0.5],[1,0.5]];portConstraint=eastwest;rotatable=0;whiteSpace=wrap;html=1;" parent="3JHUdMabVC3wb-WBygPt-1" vertex="1">
          <mxGeometry y="120" width="175" height="30" as="geometry" />
        </mxCell>
        <mxCell id="3JHUdMabVC3wb-WBygPt-6" value="+Password: String [1]" style="text;strokeColor=none;fillColor=none;align=left;verticalAlign=middle;spacingLeft=4;spacingRight=4;overflow=hidden;points=[[0,0.5],[1,0.5]];portConstraint=eastwest;rotatable=0;whiteSpace=wrap;html=1;" parent="3JHUdMabVC3wb-WBygPt-1" vertex="1">
          <mxGeometry y="150" width="175" height="30" as="geometry" />
        </mxCell>
        <mxCell id="3JHUdMabVC3wb-WBygPt-7" style="edgeStyle=orthogonalEdgeStyle;rounded=0;orthogonalLoop=1;jettySize=auto;html=1;exitX=1;exitY=0.75;exitDx=0;exitDy=0;entryX=0.5;entryY=0;entryDx=0;entryDy=0;endArrow=none;startFill=0;" parent="1" source="3JHUdMabVC3wb-WBygPt-8" target="3JHUdMabVC3wb-WBygPt-75" edge="1">
          <mxGeometry relative="1" as="geometry" />
        </mxCell>
        <mxCell id="3JHUdMabVC3wb-WBygPt-8" value="Oggetto" style="swimlane;fontStyle=0;childLayout=stackLayout;horizontal=1;startSize=30;horizontalStack=0;resizeParent=1;resizeParentMax=0;resizeLast=0;collapsible=1;marginBottom=0;whiteSpace=wrap;html=1;" parent="1" vertex="1">
          <mxGeometry x="250" y="1692.01" width="190" height="150" as="geometry" />
        </mxCell>
        <mxCell id="3JHUdMabVC3wb-WBygPt-9" value="+ImmagineOggetto: String [1]" style="text;strokeColor=none;fillColor=none;align=left;verticalAlign=middle;spacingLeft=4;spacingRight=4;overflow=hidden;points=[[0,0.5],[1,0.5]];portConstraint=eastwest;rotatable=0;whiteSpace=wrap;html=1;" parent="3JHUdMabVC3wb-WBygPt-8" vertex="1">
          <mxGeometry y="30" width="190" height="30" as="geometry" />
        </mxCell>
        <mxCell id="3JHUdMabVC3wb-WBygPt-10" value="+NomeOggetto: String [1]" style="text;strokeColor=none;fillColor=none;align=left;verticalAlign=middle;spacingLeft=4;spacingRight=4;overflow=hidden;points=[[0,0.5],[1,0.5]];portConstraint=eastwest;rotatable=0;whiteSpace=wrap;html=1;" parent="3JHUdMabVC3wb-WBygPt-8" vertex="1">
          <mxGeometry y="60" width="190" height="30" as="geometry" />
        </mxCell>
        <mxCell id="3JHUdMabVC3wb-WBygPt-11" value="+Categoria: [1] enum" style="text;strokeColor=none;fillColor=none;align=left;verticalAlign=middle;spacingLeft=4;spacingRight=4;overflow=hidden;points=[[0,0.5],[1,0.5]];portConstraint=eastwest;rotatable=0;whiteSpace=wrap;html=1;" parent="3JHUdMabVC3wb-WBygPt-8" vertex="1">
          <mxGeometry y="90" width="190" height="30" as="geometry" />
        </mxCell>
        <mxCell id="3JHUdMabVC3wb-WBygPt-12" value="+Descrizione: String [1]" style="text;strokeColor=none;fillColor=none;align=left;verticalAlign=middle;spacingLeft=4;spacingRight=4;overflow=hidden;points=[[0,0.5],[1,0.5]];portConstraint=eastwest;rotatable=0;whiteSpace=wrap;html=1;" parent="3JHUdMabVC3wb-WBygPt-8" vertex="1">
          <mxGeometry y="120" width="190" height="30" as="geometry" />
        </mxCell>
        <mxCell id="3JHUdMabVC3wb-WBygPt-13" value="Annuncio" style="swimlane;fontStyle=0;childLayout=stackLayout;horizontal=1;startSize=30;horizontalStack=0;resizeParent=1;resizeParentMax=0;resizeLast=0;collapsible=1;marginBottom=0;whiteSpace=wrap;html=1;" parent="1" vertex="1">
          <mxGeometry x="630.88" y="1433.82" width="210" height="210" as="geometry" />
        </mxCell>
        <mxCell id="3JHUdMabVC3wb-WBygPt-14" value="+Titolo: [1] String" style="text;strokeColor=none;fillColor=none;align=left;verticalAlign=middle;spacingLeft=4;spacingRight=4;overflow=hidden;points=[[0,0.5],[1,0.5]];portConstraint=eastwest;rotatable=0;whiteSpace=wrap;html=1;" parent="3JHUdMabVC3wb-WBygPt-13" vertex="1">
          <mxGeometry y="30" width="210" height="30" as="geometry" />
        </mxCell>
        <mxCell id="3JHUdMabVC3wb-WBygPt-15" value="+Stato: [1] &amp;lt;&amp;lt;enum&amp;gt;&amp;gt;" style="text;strokeColor=none;fillColor=none;align=left;verticalAlign=middle;spacingLeft=4;spacingRight=4;overflow=hidden;points=[[0,0.5],[1,0.5]];portConstraint=eastwest;rotatable=0;whiteSpace=wrap;html=1;" parent="3JHUdMabVC3wb-WBygPt-13" vertex="1">
          <mxGeometry y="60" width="210" height="30" as="geometry" />
        </mxCell>
        <mxCell id="3JHUdMabVC3wb-WBygPt-16" value="+FasciaOrariaInizio: [1] Timestamp" style="text;strokeColor=none;fillColor=none;align=left;verticalAlign=middle;spacingLeft=4;spacingRight=4;overflow=hidden;points=[[0,0.5],[1,0.5]];portConstraint=eastwest;rotatable=0;whiteSpace=wrap;html=1;" parent="3JHUdMabVC3wb-WBygPt-13" vertex="1">
          <mxGeometry y="90" width="210" height="30" as="geometry" />
        </mxCell>
        <mxCell id="3JHUdMabVC3wb-WBygPt-17" value="+FasciaOrariaFine: [1] Timestamp" style="text;strokeColor=none;fillColor=none;align=left;verticalAlign=middle;spacingLeft=4;spacingRight=4;overflow=hidden;points=[[0,0.5],[1,0.5]];portConstraint=eastwest;rotatable=0;whiteSpace=wrap;html=1;" parent="3JHUdMabVC3wb-WBygPt-13" vertex="1">
          <mxGeometry y="120" width="210" height="30" as="geometry" />
        </mxCell>
        <mxCell id="3JHUdMabVC3wb-WBygPt-18" value="+Descrizione: [0..1] String" style="text;strokeColor=none;fillColor=none;align=left;verticalAlign=middle;spacingLeft=4;spacingRight=4;overflow=hidden;points=[[0,0.5],[1,0.5]];portConstraint=eastwest;rotatable=0;whiteSpace=wrap;html=1;" parent="3JHUdMabVC3wb-WBygPt-13" vertex="1">
          <mxGeometry y="150" width="210" height="30" as="geometry" />
        </mxCell>
        <mxCell id="3JHUdMabVC3wb-WBygPt-19" value="+Sede: [1]: String" style="text;strokeColor=none;fillColor=none;align=left;verticalAlign=middle;spacingLeft=4;spacingRight=4;overflow=hidden;points=[[0,0.5],[1,0.5]];portConstraint=eastwest;rotatable=0;whiteSpace=wrap;html=1;" parent="3JHUdMabVC3wb-WBygPt-13" vertex="1">
          <mxGeometry y="180" width="210" height="30" as="geometry" />
        </mxCell>
        <mxCell id="3JHUdMabVC3wb-WBygPt-20" value="" style="triangle;whiteSpace=wrap;html=1;rotation=-75;" parent="1" vertex="1">
          <mxGeometry x="650.88" y="1641.74" width="26.76" height="30.81" as="geometry" />
        </mxCell>
        <mxCell id="3JHUdMabVC3wb-WBygPt-21" value="" style="triangle;whiteSpace=wrap;html=1;rotation=-90;" parent="1" vertex="1">
          <mxGeometry x="724.44" y="1640" width="22.87" height="30.81" as="geometry" />
        </mxCell>
        <mxCell id="3JHUdMabVC3wb-WBygPt-22" value="" style="triangle;whiteSpace=wrap;html=1;rotation=-110;" parent="1" vertex="1">
          <mxGeometry x="781.625" y="1641.745" width="26.76" height="30.81" as="geometry" />
        </mxCell>
        <mxCell id="3JHUdMabVC3wb-WBygPt-23" value="" style="endArrow=none;html=1;rounded=0;entryX=0;entryY=0.5;entryDx=0;entryDy=0;exitX=0.75;exitY=0;exitDx=0;exitDy=0;" parent="1" source="3JHUdMabVC3wb-WBygPt-26" target="3JHUdMabVC3wb-WBygPt-20" edge="1">
          <mxGeometry width="50" height="50" relative="1" as="geometry">
            <mxPoint x="615.88" y="1803.42" as="sourcePoint" />
            <mxPoint x="645.88" y="1732.22" as="targetPoint" />
          </mxGeometry>
        </mxCell>
        <mxCell id="3JHUdMabVC3wb-WBygPt-24" value="" style="endArrow=none;html=1;rounded=0;entryX=0;entryY=0.5;entryDx=0;entryDy=0;exitX=0.5;exitY=0;exitDx=0;exitDy=0;" parent="1" target="3JHUdMabVC3wb-WBygPt-21" edge="1">
          <mxGeometry width="50" height="50" relative="1" as="geometry">
            <mxPoint x="735.88" y="1803.42" as="sourcePoint" />
            <mxPoint x="735.8830861774546" y="1730.201194945552" as="targetPoint" />
          </mxGeometry>
        </mxCell>
        <mxCell id="3JHUdMabVC3wb-WBygPt-25" value="" style="endArrow=none;html=1;rounded=0;entryX=0;entryY=0.5;entryDx=0;entryDy=0;exitX=0.25;exitY=0;exitDx=0;exitDy=0;" parent="1" source="3JHUdMabVC3wb-WBygPt-29" target="3JHUdMabVC3wb-WBygPt-22" edge="1">
          <mxGeometry width="50" height="50" relative="1" as="geometry">
            <mxPoint x="835.88" y="1783.42" as="sourcePoint" />
            <mxPoint x="815.88" y="1753.42" as="targetPoint" />
          </mxGeometry>
        </mxCell>
        <mxCell id="3JHUdMabVC3wb-WBygPt-26" value="AnnuncioVendita" style="swimlane;fontStyle=0;childLayout=stackLayout;horizontal=1;startSize=30;horizontalStack=0;resizeParent=1;resizeParentMax=0;resizeLast=0;collapsible=1;marginBottom=0;whiteSpace=wrap;html=1;" parent="1" vertex="1">
          <mxGeometry x="510.88" y="1803.42" width="140" height="60" as="geometry" />
        </mxCell>
        <mxCell id="3JHUdMabVC3wb-WBygPt-27" value="+Prezzo: [1] Float" style="text;strokeColor=none;fillColor=none;align=left;verticalAlign=middle;spacingLeft=4;spacingRight=4;overflow=hidden;points=[[0,0.5],[1,0.5]];portConstraint=eastwest;rotatable=0;whiteSpace=wrap;html=1;" parent="3JHUdMabVC3wb-WBygPt-26" vertex="1">
          <mxGeometry y="30" width="140" height="30" as="geometry" />
        </mxCell>
        <mxCell id="3JHUdMabVC3wb-WBygPt-28" value="AnnuncioRegalo" style="swimlane;fontStyle=0;childLayout=stackLayout;horizontal=1;startSize=30;horizontalStack=0;resizeParent=1;resizeParentMax=0;resizeLast=0;collapsible=1;marginBottom=0;whiteSpace=wrap;html=1;" parent="1" vertex="1">
          <mxGeometry x="665.88" y="1803.42" width="140" height="60" as="geometry" />
        </mxCell>
        <mxCell id="3JHUdMabVC3wb-WBygPt-29" value="AnnuncioScambio" style="swimlane;fontStyle=0;childLayout=stackLayout;horizontal=1;startSize=30;horizontalStack=0;resizeParent=1;resizeParentMax=0;resizeLast=0;collapsible=1;marginBottom=0;whiteSpace=wrap;html=1;" parent="1" vertex="1">
          <mxGeometry x="825.88" y="1803.42" width="140" height="60" as="geometry" />
        </mxCell>
        <mxCell id="3JHUdMabVC3wb-WBygPt-30" value="" style="endArrow=none;dashed=1;html=1;rounded=0;" parent="1" edge="1">
          <mxGeometry width="50" height="50" relative="1" as="geometry">
            <mxPoint x="535.88" y="1743.42" as="sourcePoint" />
            <mxPoint x="975.88" y="1743.42" as="targetPoint" />
          </mxGeometry>
        </mxCell>
        <mxCell id="3JHUdMabVC3wb-WBygPt-31" value="{totale/disgiunta}" style="text;strokeColor=none;fillColor=none;align=left;verticalAlign=middle;spacingLeft=4;spacingRight=4;overflow=hidden;points=[[0,0.5],[1,0.5]];portConstraint=eastwest;rotatable=0;whiteSpace=wrap;html=1;" parent="1" vertex="1">
          <mxGeometry x="865.88" y="1713.42" width="100" height="30" as="geometry" />
        </mxCell>
        <mxCell id="3JHUdMabVC3wb-WBygPt-32" value="" style="endArrow=none;html=1;rounded=0;exitX=0;exitY=0.5;exitDx=0;exitDy=0;entryX=1;entryY=0.5;entryDx=0;entryDy=0;" parent="1" source="3JHUdMabVC3wb-WBygPt-14" target="3JHUdMabVC3wb-WBygPt-5" edge="1">
          <mxGeometry width="50" height="50" relative="1" as="geometry">
            <mxPoint x="482.5" y="1510" as="sourcePoint" />
            <mxPoint x="395" y="1430" as="targetPoint" />
          </mxGeometry>
        </mxCell>
        <mxCell id="3JHUdMabVC3wb-WBygPt-33" style="edgeStyle=orthogonalEdgeStyle;rounded=0;orthogonalLoop=1;jettySize=auto;html=1;exitX=1;exitY=0.5;exitDx=0;exitDy=0;entryX=0;entryY=0.5;entryDx=0;entryDy=0;endArrow=none;startFill=0;" parent="1" source="3JHUdMabVC3wb-WBygPt-35" target="3JHUdMabVC3wb-WBygPt-66" edge="1">
          <mxGeometry relative="1" as="geometry">
            <Array as="points">
              <mxPoint x="585" y="1170" />
              <mxPoint x="630" y="1170" />
              <mxPoint x="630" y="1155" />
            </Array>
          </mxGeometry>
        </mxCell>
        <mxCell id="3JHUdMabVC3wb-WBygPt-34" style="edgeStyle=orthogonalEdgeStyle;rounded=0;orthogonalLoop=1;jettySize=auto;html=1;exitX=0.5;exitY=1;exitDx=0;exitDy=0;entryX=0.5;entryY=0;entryDx=0;entryDy=0;endArrow=none;startFill=0;" parent="1" source="3JHUdMabVC3wb-WBygPt-35" target="3JHUdMabVC3wb-WBygPt-13" edge="1">
          <mxGeometry relative="1" as="geometry" />
        </mxCell>
        <mxCell id="3JHUdMabVC3wb-WBygPt-35" value="Offerta" style="swimlane;fontStyle=0;childLayout=stackLayout;horizontal=1;startSize=30;horizontalStack=0;resizeParent=1;resizeParentMax=0;resizeLast=0;collapsible=1;marginBottom=0;whiteSpace=wrap;html=1;" parent="1" vertex="1">
          <mxGeometry x="395" y="1128.99" width="190" height="60" as="geometry" />
        </mxCell>
        <mxCell id="3JHUdMabVC3wb-WBygPt-36" value="+StatoOfferta: [1] enum" style="text;strokeColor=none;fillColor=none;align=left;verticalAlign=middle;spacingLeft=4;spacingRight=4;overflow=hidden;points=[[0,0.5],[1,0.5]];portConstraint=eastwest;rotatable=0;whiteSpace=wrap;html=1;" parent="3JHUdMabVC3wb-WBygPt-35" vertex="1">
          <mxGeometry y="30" width="190" height="30" as="geometry" />
        </mxCell>
        <mxCell id="3JHUdMabVC3wb-WBygPt-37" value="" style="triangle;whiteSpace=wrap;html=1;rotation=60;" parent="1" vertex="1">
          <mxGeometry x="412.5" y="1098.18" width="26.76" height="30.81" as="geometry" />
        </mxCell>
        <mxCell id="3JHUdMabVC3wb-WBygPt-38" value="" style="triangle;whiteSpace=wrap;html=1;rotation=90;" parent="1" vertex="1">
          <mxGeometry x="474.12308617745475" y="1098.1761949455522" width="26.76" height="30.81" as="geometry" />
        </mxCell>
        <mxCell id="3JHUdMabVC3wb-WBygPt-39" value="" style="triangle;whiteSpace=wrap;html=1;rotation=120;" parent="1" vertex="1">
          <mxGeometry x="537.4950000000001" y="1098.1750000000002" width="26.76" height="30.81" as="geometry" />
        </mxCell>
        <mxCell id="3JHUdMabVC3wb-WBygPt-40" value="" style="endArrow=none;html=1;rounded=0;exitX=0.716;exitY=0.995;exitDx=0;exitDy=0;exitPerimeter=0;entryX=0;entryY=0.5;entryDx=0;entryDy=0;" parent="1" target="3JHUdMabVC3wb-WBygPt-37" edge="1">
          <mxGeometry width="50" height="50" relative="1" as="geometry">
            <mxPoint x="365.2399999999998" y="969.8499999999999" as="sourcePoint" />
            <mxPoint x="415" y="1097.99" as="targetPoint" />
          </mxGeometry>
        </mxCell>
        <mxCell id="3JHUdMabVC3wb-WBygPt-41" value="" style="endArrow=none;html=1;rounded=0;entryX=0.395;entryY=0.986;entryDx=0;entryDy=0;exitX=0;exitY=0.5;exitDx=0;exitDy=0;entryPerimeter=0;" parent="1" source="3JHUdMabVC3wb-WBygPt-38" target="BhLQuG59s95lbZ9VQe8s-4" edge="1">
          <mxGeometry width="50" height="50" relative="1" as="geometry">
            <mxPoint x="482.02" y="1098.18" as="sourcePoint" />
            <mxPoint x="482.0430861774546" y="1025.151194945552" as="targetPoint" />
          </mxGeometry>
        </mxCell>
        <mxCell id="3JHUdMabVC3wb-WBygPt-42" value="" style="endArrow=none;html=1;rounded=0;entryX=0;entryY=0.5;entryDx=0;entryDy=0;exitX=0.25;exitY=1;exitDx=0;exitDy=0;" parent="1" source="3JHUdMabVC3wb-WBygPt-47" target="3JHUdMabVC3wb-WBygPt-39" edge="1">
          <mxGeometry width="50" height="50" relative="1" as="geometry">
            <mxPoint x="552.5" y="1140" as="sourcePoint" />
            <mxPoint x="507.5" y="1090" as="targetPoint" />
          </mxGeometry>
        </mxCell>
        <mxCell id="3JHUdMabVC3wb-WBygPt-43" style="edgeStyle=orthogonalEdgeStyle;rounded=0;orthogonalLoop=1;jettySize=auto;html=1;exitX=0;exitY=0.5;exitDx=0;exitDy=0;entryX=0;entryY=0.5;entryDx=0;entryDy=0;endArrow=none;startFill=0;" parent="1" source="3JHUdMabVC3wb-WBygPt-44" target="3JHUdMabVC3wb-WBygPt-11" edge="1">
          <mxGeometry relative="1" as="geometry">
            <Array as="points">
              <mxPoint x="160" y="940" />
              <mxPoint x="160" y="1797" />
            </Array>
          </mxGeometry>
        </mxCell>
        <mxCell id="3JHUdMabVC3wb-WBygPt-44" value="OffertaScambio" style="swimlane;fontStyle=0;childLayout=stackLayout;horizontal=1;startSize=30;horizontalStack=0;resizeParent=1;resizeParentMax=0;resizeLast=0;collapsible=1;marginBottom=0;whiteSpace=wrap;html=1;" parent="1" vertex="1">
          <mxGeometry x="220" y="910" width="185" height="60" as="geometry" />
        </mxCell>
        <mxCell id="3JHUdMabVC3wb-WBygPt-45" value="+OggettiOfferti: [1..*]: String&amp;nbsp;" style="text;strokeColor=none;fillColor=none;align=left;verticalAlign=middle;spacingLeft=4;spacingRight=4;overflow=hidden;points=[[0,0.5],[1,0.5]];portConstraint=eastwest;rotatable=0;whiteSpace=wrap;html=1;" parent="3JHUdMabVC3wb-WBygPt-44" vertex="1">
          <mxGeometry y="30" width="185" height="30" as="geometry" />
        </mxCell>
        <mxCell id="3JHUdMabVC3wb-WBygPt-46" value="OffertaRegalo" style="swimlane;fontStyle=0;childLayout=stackLayout;horizontal=1;startSize=30;horizontalStack=0;resizeParent=1;resizeParentMax=0;resizeLast=0;collapsible=1;marginBottom=0;whiteSpace=wrap;html=1;" parent="1" vertex="1">
          <mxGeometry x="425" y="910" width="160" height="60" as="geometry" />
        </mxCell>
        <mxCell id="BhLQuG59s95lbZ9VQe8s-4" value="+Motivazione: [0..1] String" style="text;strokeColor=none;fillColor=none;align=left;verticalAlign=middle;spacingLeft=4;spacingRight=4;overflow=hidden;points=[[0,0.5],[1,0.5]];portConstraint=eastwest;rotatable=0;whiteSpace=wrap;html=1;" vertex="1" parent="3JHUdMabVC3wb-WBygPt-46">
          <mxGeometry y="30" width="160" height="30" as="geometry" />
        </mxCell>
        <mxCell id="3JHUdMabVC3wb-WBygPt-47" value="OffertaVendita" style="swimlane;fontStyle=0;childLayout=stackLayout;horizontal=1;startSize=30;horizontalStack=0;resizeParent=1;resizeParentMax=0;resizeLast=0;collapsible=1;marginBottom=0;whiteSpace=wrap;html=1;" parent="1" vertex="1">
          <mxGeometry x="615" y="910" width="165" height="60" as="geometry" />
        </mxCell>
        <mxCell id="3JHUdMabVC3wb-WBygPt-48" value="+PrezzoOfferto: [1] Float" style="text;strokeColor=none;fillColor=none;align=left;verticalAlign=middle;spacingLeft=4;spacingRight=4;overflow=hidden;points=[[0,0.5],[1,0.5]];portConstraint=eastwest;rotatable=0;whiteSpace=wrap;html=1;" parent="3JHUdMabVC3wb-WBygPt-47" vertex="1">
          <mxGeometry y="30" width="165" height="30" as="geometry" />
        </mxCell>
        <mxCell id="3JHUdMabVC3wb-WBygPt-49" value="" style="endArrow=none;dashed=1;html=1;rounded=0;" parent="1" edge="1">
          <mxGeometry width="50" height="50" relative="1" as="geometry">
            <mxPoint x="295" y="1037.99" as="sourcePoint" />
            <mxPoint x="735" y="1037.99" as="targetPoint" />
          </mxGeometry>
        </mxCell>
        <mxCell id="3JHUdMabVC3wb-WBygPt-50" value="{totale/disgiunta}" style="text;strokeColor=none;fillColor=none;align=left;verticalAlign=middle;spacingLeft=4;spacingRight=4;overflow=hidden;points=[[0,0.5],[1,0.5]];portConstraint=eastwest;rotatable=0;whiteSpace=wrap;html=1;" parent="1" vertex="1">
          <mxGeometry x="630.88" y="1007.99" width="100" height="30" as="geometry" />
        </mxCell>
        <mxCell id="3JHUdMabVC3wb-WBygPt-51" value="" style="endArrow=none;html=1;rounded=0;entryX=0;entryY=0.5;entryDx=0;entryDy=0;exitX=1;exitY=0;exitDx=0;exitDy=0;" parent="1" source="3JHUdMabVC3wb-WBygPt-8" target="3JHUdMabVC3wb-WBygPt-17" edge="1">
          <mxGeometry width="50" height="50" relative="1" as="geometry">
            <mxPoint x="440" y="1635" as="sourcePoint" />
            <mxPoint x="417.5" y="1660" as="targetPoint" />
          </mxGeometry>
        </mxCell>
        <mxCell id="3JHUdMabVC3wb-WBygPt-52" value="StatoAnnuncio&lt;b&gt;&amp;lt;&amp;lt;enum&amp;gt;&amp;gt;&lt;/b&gt;" style="swimlane;fontStyle=0;childLayout=stackLayout;horizontal=1;startSize=30;horizontalStack=0;resizeParent=1;resizeParentMax=0;resizeLast=0;collapsible=1;marginBottom=0;whiteSpace=wrap;html=1;" parent="1" vertex="1">
          <mxGeometry x="940" y="1390" width="190" height="120" as="geometry" />
        </mxCell>
        <mxCell id="3JHUdMabVC3wb-WBygPt-53" value="venduto" style="text;strokeColor=none;fillColor=none;align=center;verticalAlign=middle;spacingLeft=4;spacingRight=4;overflow=hidden;points=[[0,0.5],[1,0.5]];portConstraint=eastwest;rotatable=0;whiteSpace=wrap;html=1;" parent="3JHUdMabVC3wb-WBygPt-52" vertex="1">
          <mxGeometry y="30" width="190" height="30" as="geometry" />
        </mxCell>
        <mxCell id="3JHUdMabVC3wb-WBygPt-54" value="scambiato" style="text;strokeColor=none;fillColor=none;align=center;verticalAlign=middle;spacingLeft=4;spacingRight=4;overflow=hidden;points=[[0,0.5],[1,0.5]];portConstraint=eastwest;rotatable=0;whiteSpace=wrap;html=1;" parent="3JHUdMabVC3wb-WBygPt-52" vertex="1">
          <mxGeometry y="60" width="190" height="30" as="geometry" />
        </mxCell>
        <mxCell id="3JHUdMabVC3wb-WBygPt-55" value="regalato" style="text;strokeColor=none;fillColor=none;align=center;verticalAlign=middle;spacingLeft=4;spacingRight=4;overflow=hidden;points=[[0,0.5],[1,0.5]];portConstraint=eastwest;rotatable=0;whiteSpace=wrap;html=1;" parent="3JHUdMabVC3wb-WBygPt-52" vertex="1">
          <mxGeometry y="90" width="190" height="30" as="geometry" />
        </mxCell>
        <mxCell id="3JHUdMabVC3wb-WBygPt-56" style="edgeStyle=orthogonalEdgeStyle;rounded=0;orthogonalLoop=1;jettySize=auto;html=1;exitX=1;exitY=0.5;exitDx=0;exitDy=0;entryX=0;entryY=0.5;entryDx=0;entryDy=0;" parent="1" source="3JHUdMabVC3wb-WBygPt-15" target="3JHUdMabVC3wb-WBygPt-54" edge="1">
          <mxGeometry relative="1" as="geometry" />
        </mxCell>
        <mxCell id="3JHUdMabVC3wb-WBygPt-57" value="" style="endArrow=none;html=1;rounded=0;exitX=0.5;exitY=0;exitDx=0;exitDy=0;entryX=0.5;entryY=1;entryDx=0;entryDy=0;" parent="1" source="3JHUdMabVC3wb-WBygPt-8" target="3JHUdMabVC3wb-WBygPt-1" edge="1">
          <mxGeometry width="50" height="50" relative="1" as="geometry">
            <mxPoint x="340" y="1690" as="sourcePoint" />
            <mxPoint x="340" y="1520" as="targetPoint" />
          </mxGeometry>
        </mxCell>
        <mxCell id="3JHUdMabVC3wb-WBygPt-58" value="+Pubblica&lt;div&gt;0..*&lt;/div&gt;" style="text;html=1;align=center;verticalAlign=middle;resizable=0;points=[];autosize=1;strokeColor=none;fillColor=none;" parent="1" vertex="1">
          <mxGeometry x="559.12" y="1440" width="80" height="40" as="geometry" />
        </mxCell>
        <mxCell id="3JHUdMabVC3wb-WBygPt-59" value="+è pubblicato da&lt;div&gt;1&lt;/div&gt;" style="text;html=1;align=center;verticalAlign=middle;resizable=0;points=[];autosize=1;strokeColor=none;fillColor=none;" parent="1" vertex="1">
          <mxGeometry x="435" y="1470" width="110" height="40" as="geometry" />
        </mxCell>
        <mxCell id="3JHUdMabVC3wb-WBygPt-60" value="+Posseduto da&lt;div&gt;1&lt;/div&gt;" style="text;html=1;align=center;verticalAlign=middle;resizable=0;points=[];autosize=1;strokeColor=none;fillColor=none;" parent="1" vertex="1">
          <mxGeometry x="350" y="1590" width="100" height="40" as="geometry" />
        </mxCell>
        <mxCell id="3JHUdMabVC3wb-WBygPt-61" value="+Possiede&lt;div&gt;0..*&lt;/div&gt;" style="text;html=1;align=center;verticalAlign=middle;resizable=0;points=[];autosize=1;strokeColor=none;fillColor=none;" parent="1" vertex="1">
          <mxGeometry x="350" y="1652.01" width="80" height="40" as="geometry" />
        </mxCell>
        <mxCell id="3JHUdMabVC3wb-WBygPt-62" value="+Propone&lt;div&gt;1&lt;/div&gt;" style="text;html=1;align=center;verticalAlign=middle;resizable=0;points=[];autosize=1;strokeColor=none;fillColor=none;" parent="1" vertex="1">
          <mxGeometry x="430.88" y="1692.01" width="80" height="40" as="geometry" />
        </mxCell>
        <mxCell id="3JHUdMabVC3wb-WBygPt-63" value="+Appartiene a&lt;div&gt;0..1&lt;/div&gt;" style="text;html=1;align=center;verticalAlign=middle;resizable=0;points=[];autosize=1;strokeColor=none;fillColor=none;" parent="1" vertex="1">
          <mxGeometry x="530.88" y="1620" width="100" height="40" as="geometry" />
        </mxCell>
        <mxCell id="3JHUdMabVC3wb-WBygPt-64" value="&lt;span style=&quot;text-align: left;&quot;&gt;StatoOfferta&lt;/span&gt;&lt;b&gt;&amp;lt;&amp;lt;enum&amp;gt;&amp;gt;&lt;/b&gt;" style="swimlane;fontStyle=0;childLayout=stackLayout;horizontal=1;startSize=30;horizontalStack=0;resizeParent=1;resizeParentMax=0;resizeLast=0;collapsible=1;marginBottom=0;whiteSpace=wrap;html=1;" parent="1" vertex="1">
          <mxGeometry x="700" y="1080" width="190" height="120" as="geometry" />
        </mxCell>
        <mxCell id="3JHUdMabVC3wb-WBygPt-65" value="Accettata" style="text;strokeColor=none;fillColor=none;align=center;verticalAlign=middle;spacingLeft=4;spacingRight=4;overflow=hidden;points=[[0,0.5],[1,0.5]];portConstraint=eastwest;rotatable=0;whiteSpace=wrap;html=1;" parent="3JHUdMabVC3wb-WBygPt-64" vertex="1">
          <mxGeometry y="30" width="190" height="30" as="geometry" />
        </mxCell>
        <mxCell id="3JHUdMabVC3wb-WBygPt-66" value="Rifiutata" style="text;strokeColor=none;fillColor=none;align=center;verticalAlign=middle;spacingLeft=4;spacingRight=4;overflow=hidden;points=[[0,0.5],[1,0.5]];portConstraint=eastwest;rotatable=0;whiteSpace=wrap;html=1;" parent="3JHUdMabVC3wb-WBygPt-64" vertex="1">
          <mxGeometry y="60" width="190" height="30" as="geometry" />
        </mxCell>
        <mxCell id="3JHUdMabVC3wb-WBygPt-67" value="Attesa" style="text;strokeColor=none;fillColor=none;align=center;verticalAlign=middle;spacingLeft=4;spacingRight=4;overflow=hidden;points=[[0,0.5],[1,0.5]];portConstraint=eastwest;rotatable=0;whiteSpace=wrap;html=1;" parent="3JHUdMabVC3wb-WBygPt-64" vertex="1">
          <mxGeometry y="90" width="190" height="30" as="geometry" />
        </mxCell>
        <mxCell id="3JHUdMabVC3wb-WBygPt-68" style="edgeStyle=orthogonalEdgeStyle;rounded=0;orthogonalLoop=1;jettySize=auto;html=1;exitX=0;exitY=0.5;exitDx=0;exitDy=0;entryX=0.5;entryY=0;entryDx=0;entryDy=0;endArrow=none;startFill=0;" parent="1" source="3JHUdMabVC3wb-WBygPt-36" target="3JHUdMabVC3wb-WBygPt-1" edge="1">
          <mxGeometry relative="1" as="geometry" />
        </mxCell>
        <mxCell id="3JHUdMabVC3wb-WBygPt-69" value="+Fa&lt;div&gt;0.*&lt;/div&gt;" style="text;html=1;align=center;verticalAlign=middle;resizable=0;points=[];autosize=1;strokeColor=none;fillColor=none;" parent="1" vertex="1">
          <mxGeometry x="355" y="1200" width="40" height="40" as="geometry" />
        </mxCell>
        <mxCell id="3JHUdMabVC3wb-WBygPt-70" value="+fatta da&lt;div&gt;1&lt;/div&gt;" style="text;html=1;align=center;verticalAlign=middle;resizable=0;points=[];autosize=1;strokeColor=none;fillColor=none;" parent="1" vertex="1">
          <mxGeometry x="350" y="1360" width="70" height="40" as="geometry" />
        </mxCell>
        <mxCell id="3JHUdMabVC3wb-WBygPt-71" value="+Propone&lt;div&gt;1.*&lt;/div&gt;" style="text;html=1;align=center;verticalAlign=middle;resizable=0;points=[];autosize=1;strokeColor=none;fillColor=none;" parent="1" vertex="1">
          <mxGeometry x="159.26" y="1803.42" width="80" height="40" as="geometry" />
        </mxCell>
        <mxCell id="3JHUdMabVC3wb-WBygPt-72" value="+È offerto in&lt;div&gt;0..*&lt;/div&gt;" style="text;html=1;align=center;verticalAlign=middle;resizable=0;points=[];autosize=1;strokeColor=none;fillColor=none;" parent="1" vertex="1">
          <mxGeometry x="135" y="900" width="90" height="40" as="geometry" />
        </mxCell>
        <mxCell id="3JHUdMabVC3wb-WBygPt-73" value="+Ha&lt;div&gt;0.*&lt;/div&gt;" style="text;html=1;align=center;verticalAlign=middle;resizable=0;points=[];autosize=1;strokeColor=none;fillColor=none;" parent="1" vertex="1">
          <mxGeometry x="499.26" y="1188.99" width="50" height="40" as="geometry" />
        </mxCell>
        <mxCell id="3JHUdMabVC3wb-WBygPt-74" value="+Riferita&lt;div&gt;1&lt;/div&gt;" style="text;html=1;align=center;verticalAlign=middle;resizable=0;points=[];autosize=1;strokeColor=none;fillColor=none;" parent="1" vertex="1">
          <mxGeometry x="724.44" y="1393.82" width="70" height="40" as="geometry" />
        </mxCell>
        <mxCell id="3JHUdMabVC3wb-WBygPt-75" value="Categoria&lt;b&gt;&amp;lt;&amp;lt;enum&amp;gt;&amp;gt;&lt;/b&gt;" style="swimlane;fontStyle=0;childLayout=stackLayout;horizontal=1;startSize=30;horizontalStack=0;resizeParent=1;resizeParentMax=0;resizeLast=0;collapsible=1;marginBottom=0;whiteSpace=wrap;html=1;" parent="1" vertex="1">
          <mxGeometry x="249.26" y="1920" width="190" height="120" as="geometry" />
        </mxCell>
        <mxCell id="3JHUdMabVC3wb-WBygPt-76" value="Abbigliamento" style="text;strokeColor=none;fillColor=none;align=center;verticalAlign=middle;spacingLeft=4;spacingRight=4;overflow=hidden;points=[[0,0.5],[1,0.5]];portConstraint=eastwest;rotatable=0;whiteSpace=wrap;html=1;" parent="3JHUdMabVC3wb-WBygPt-75" vertex="1">
          <mxGeometry y="30" width="190" height="30" as="geometry" />
        </mxCell>
        <mxCell id="3JHUdMabVC3wb-WBygPt-77" value="Eletronica" style="text;strokeColor=none;fillColor=none;align=center;verticalAlign=middle;spacingLeft=4;spacingRight=4;overflow=hidden;points=[[0,0.5],[1,0.5]];portConstraint=eastwest;rotatable=0;whiteSpace=wrap;html=1;" parent="3JHUdMabVC3wb-WBygPt-75" vertex="1">
          <mxGeometry y="60" width="190" height="30" as="geometry" />
        </mxCell>
        <mxCell id="3JHUdMabVC3wb-WBygPt-78" value="Cancelleria" style="text;strokeColor=none;fillColor=none;align=center;verticalAlign=middle;spacingLeft=4;spacingRight=4;overflow=hidden;points=[[0,0.5],[1,0.5]];portConstraint=eastwest;rotatable=0;whiteSpace=wrap;html=1;" parent="3JHUdMabVC3wb-WBygPt-75" vertex="1">
          <mxGeometry y="90" width="190" height="30" as="geometry" />
        </mxCell>
        <mxCell id="BhLQuG59s95lbZ9VQe8s-5" value="Text" style="text;strokeColor=none;fillColor=none;html=1;align=center;verticalAlign=middle;whiteSpace=wrap;rounded=0;fontSize=16;" vertex="1" parent="1">
          <mxGeometry x="170" y="800" width="60" height="30" as="geometry" />
        </mxCell>
      </root>
    </mxGraphModel>
  </diagram>
</mxfile>
